# AST/ASF file generated using VICON BodyLanguage
# -----------------------------------------------
:version 1.10
:name VICON
:units
  mass 1.0
  length 0.45
  angle deg
:documentation
   .ast/.asf automatically generated from VICON data using
   VICON BodyBuilder and BodyLanguage model FoxedUp or BRILLIANT.MOD
:root
   order TX TY TZ RX RY RZ
   axis XYZ
   position 0 0 0  
   orientation 0 0 0 
:bonedata
  begin
     id 1 
     name lhipjoint
     direction 0.566809 -0.746272 0.349008 
     length 2.40479 
     axis 0 0 0  XYZ
  end
  begin
     id 2 
     name lfemur
     direction 0.34202 -0.939693 0  
     length 7.1578  
     axis 0 0 20  XYZ
    dof rx ry rz
    limits (-160.0 20.0)
           (-70.0 70.0)
           (-60.0 70.0)
  end
  begin
     id 3 
     name ltibia
     direction 0.34202 -0.939693 0   
     length 7.49137   
     axis 0 0 20   XYZ
    dof rx
    limits (-10.0 170.0)
  end
  begin
     id 4 
     name lfoot
     direction 0.0665746 -0.182912 0.980873   
     length 2.36784   
     axis -90 7.62852e-016 20   XYZ
    dof rx rz
    limits (-45.0 90.0)
           (-70.0 20.0)
  end
  begin
     id 5 
     name ltoes
     direction 1.53601e-011 -4.22058e-011 1   
     length 1.18966   
     axis -90 7.62852e-016 20   XYZ
    dof rx
    limits (-90.0 20.0)
  end
  begin
     id 6 
     name rhipjoint
     direction -0.550236 -0.756381 0.353735   
     length 2.37265  
     axis 0 0 0  XYZ 
  end
  begin
     id 7 
     name rfemur
     direction -0.34202 -0.939693 0   
     length 7.43386   
     axis 0 0 -20   XYZ
    dof rx ry rz
    limits (-160.0 20.0)
           (-70.0 70.0)
           (-70.0 60.0)
  end
  begin
     id 8 
     name rtibia
     direction -0.34202 -0.939693 0   
     length 7.50908   
     axis 0 0 -20   XYZ
    dof rx
    limits (-10.0 170.0)
 end
 begin
     id 9 
     name rfoot
     direction -0.0683029 -0.187661 0.979856   
     length 2.41173  
     axis -90 -7.62852e-016 -20   XYZ
    dof rx rz
    limits (-45.0 90.0)
           (-20.0 70.0)
  end
  begin
     id 10 
     name rtoes
     direction -1.53528e-011 -4.21968e-011 1   
     length 1.21082   
     axis -90 -7.62852e-016 -20   XYZ
    dof rx
    limits (-90.0 20.0)
  end
  begin
     id 11 
     name lowerback
     direction 0.013823 0.995423 -0.0945635   
     length 2.04495   
     axis 0 0 0   XYZ
    dof rx ry rz
    limits (-20.0 45.0)
           (-30.0 30.0)
           (-30.0 30.0)
  end
  begin
     id 12 
     name upperback
     direction 0.0276657 0.9994 -0.020853   
     length 2.05008   
     axis 0 0 0   XYZ
    dof rx ry rz
    limits (-20.0 45.0)
           (-30.0 30.0)
           (-30.0 30.0)
  end
  begin
     id 13 
     name thorax
     direction 0.019782 0.999531 0.0233827   
     length 2.06488   
     axis 0 0 0   XYZ
    dof rx ry rz
    limits (-20.0 45.0)
           (-30.0 30.0)
           (-30.0 30.0)
  end
  begin
     id 14 
     name lowerneck
     direction -0.0308541 0.994709 0.0979874   
     length 1.75553   
     axis 0 0 0   XYZ
    dof rx ry rz
    limits (-20.0 45.0)
           (-30.0 30.0)
           (-30.0 30.0)
  end
  begin
     id 15 
     name upperneck
     direction 0.0588398 0.995804 -0.0700903   
     length 1.76878   
     axis 0 0 0   XYZ
    dof rx ry rz
    limits (-20.0 45.0)
           (-30.0 30.0)
           (-30.0 30.0)
  end
  begin
     id 16
     name head
     direction 0.0209966 0.999159 -0.0352225  
     length 1.77193  
     axis 0 0 0   XYZ
    dof rx ry rz
    limits (-20.0 45.0)
           (-30.0 30.0)
           (-30.0 30.0)
  end
  begin
     id 17 
     name lclavicle
     direction 0.938182 0.335073 -0.0868338  
     length 3.58396  
     axis 0 0 0   XYZ
    dof ry rz
    limits (-20.0 10.0)
           (0.0 20.0)
  end
  begin
     id 18 
     name lhumerus
     direction 1 -4.48971e-011 -1.26313e-017   
     length 4.983   
     axis 180 -30 -90   XYZ
    dof rx ry rz
    limits (-60.0 90.0)
           (-90.0 90.0)
           (-90.0 90.0)
  end
  begin
     id 19
     name lradius
     direction 1 -4.48948e-011 -5.89033e-027   
     length 3.48356   
     axis 180 -30 -90   XYZ
    dof rx
    limits (-10.0 170.0)
  end
  begin
     id 20
     name lwrist
     direction 1 -4.48977e-011 -1.48983e-026   
     length 1.74178   
     axis 9.0955e-015 90 90   XYZ
    dof ry
    limits (-180.0 0.0)
 end
  begin
     id 21 
     name lhand
     direction 1 -4.49046e-011 -2.98066e-026   
     length 0.715259   
     axis 1.90115e-014 90 90   XYZ
    dof rx rz
    limits (-90.0 90.0)
           (-45.0 45.0)
  end
  begin
     id 22 
     name lfingers
     direction 1 -4.48907e-011 -5.95731e-026   
     length 0.576661   
     axis 3.80223e-014 90 90   XYZ
    dof rx
    limits (0.0 90.0)
  end
  begin
     id 23
     name lthumb
     direction 0.707107 -6.34963e-011 0.707107   
     length 0.827973   
     axis -90 45 -3.84942e-014   XYZ
    dof rx rz
    limits (-45.0 45.0)
           (-45.0 45.0)
  end
  begin
     id 24 
     name rclavicle
     direction -0.909637 0.398485 -0.11735   
     length 3.44819  
     axis 0 0 0   XYZ 
    dof ry rz
    limits (-10.0 20.0)
           (-20.0 0.0)
  end
  begin
     id 25 
     name rhumerus
     direction -1 -4.48978e-011 -1.09333e-027  
     length 5.2419   
     axis 180 30 90   XYZ
    dof rx ry rz
    limits (-90.0 60.0)
           (-90.0 90.0)
           (-90.0 90.0)
  end
  begin
     id 26 
     name rradius
     direction -1 -4.48953e-011 -7.61841e-027   
     length 3.44417   
     axis 180 30 90   XYZ
    dof rx
    limits (-10.0 170.0)
  end
  begin
     id 27 
     name rwrist
     direction -1 -4.48977e-011 -1.48983e-026   
     length 1.72209   
     axis 9.0955e-015 -90 -90   XYZ
    dof ry
    limits (-180.0 0.0)
  end
  begin
     id 28
     name rhand
     direction -1 -4.49027e-011 -2.98038e-026   
     length 0.622529   
     axis 1.90115e-014 -90 -90   XYZ
    dof rx rz
    limits (-90.0 90.0)
           (-45.0 45.0)
  end
  begin
     id 29
     name rfingers
     direction -1 -4.48838e-011 -5.95531e-026   
     length 0.501899   
     axis 3.80223e-014 -90 -90   XYZ
    dof rx
    limits (0.0 90.0)
  end
  begin
     id 30
     name rthumb
     direction -0.707107 -6.34937e-011 0.707107   
     length 0.720629   
     axis -90 -45 3.84942e-014   XYZ
    dof rx rz
    limits (-45.0 45.0)
           (-45.0 45.0)
  end
:hierarchy
  begin
    root lhipjoint rhipjoint lowerback
    lhipjoint lfemur
    lfemur ltibia
    ltibia lfoot
    lfoot ltoes
    rhipjoint rfemur
    rfemur rtibia
    rtibia rfoot
    rfoot rtoes
    lowerback upperback
    upperback thorax
    thorax lowerneck lclavicle rclavicle
    lowerneck upperneck
    upperneck head
    lclavicle lhumerus
    lhumerus lradius
    lradius lwrist
    lwrist lhand lthumb
    lhand lfingers
    rclavicle rhumerus
    rhumerus rradius
    rradius rwrist
    rwrist rhand rthumb
    rhand rfingers
  end

#!OML:ASF F:\VICON\USERDATA\Patient Classification 1\PLAYGROUND\JustinFriday\JustinFriday.ASF
:FULLY-SPECIFIED
:DEGREES
403
root 0.0102768 17.8801 45.7813 -187.096 -218.421 169.522
lowerback 12.511 1.2531 4.88334
upperback 3.55146 2.54962 4.55064
thorax -3.28047 1.2858 1.6203
lowerneck -6.89402 4.44606 2.31578
upperneck 27.0617 7.84336 -5.72677
head 10.0401 3.4052 -1.54249
rclavicle -4.08502e-014 1.19271e-015
rhumerus -31.8424 -19.1691 -70.9496
rradius 20.0072
rwrist -6.22908
rhand -16.3421 -21.1449
rfingers 7.12502
rthumb 9.87015 -50.8935
lclavicle -4.08502e-014 1.19271e-015
lhumerus -36.7706 2.48329 83.5003
lradius 45.2395
lwrist 3.73247
lhand -18.3438 -7.84041
lfingers 7.12502
lthumb 7.93856 21.9905
rfemur -19.2992 2.97799 24.3783
rtibia 22.1095
rfoot 0.540563 -2.47765
rtoes 19.1571
lfemur -5.04959 -7.9689 -10.7049
ltibia 52.8642
lfoot 10.1865 -10.1879
ltoes 5.32846
404
root 0.0395557 17.8962 45.9028 -187.009 -219.418 169.132
lowerback 11.3223 1.31112 4.62297
upperback 3.98587 2.49975 4.999
thorax -2.20764 1.28543 2.27813
lowerneck -10.1282 5.57472 5.44719
upperneck 28.4757 9.52717 -7.83981
head 11.589 4.14073 -2.53993
rclavicle 6.48038e-014 -3.18055e-014
rhumerus -30.5488 -18.9541 -70.6974
rradius 19.4386
rwrist -5.55742
rhand -15.9051 -20.9311
rfingers 7.12502
rthumb 10.2917 -50.6593
lclavicle 6.48038e-014 -3.18055e-014
lhumerus -35.7446 2.87427 83.9802
lradius 44.4264
lwrist 3.79901
lhand -18.4461 -6.89845
lfingers 7.12502
lthumb 7.83981 22.9362
rfemur -19.1218 2.85087 24.6537
rtibia 21.8428
rfoot 0.341398 -3.42124
rtoes 18.9558
lfemur -7.20052 -8.25758 -10.2299
ltibia 55.4246
lfoot 11.2049 -9.37379
ltoes 5.73544
405
root 0.0757832 17.9128 46.0231 -187.291 -220.299 168.655
lowerback 11.2238 1.20725 4.75715
upperback 3.91252 2.38436 5.1768
thorax -2.23145 1.22909 2.40561
lowerneck -10.2141 5.67673 5.2281
upperneck 28.1673 9.6368 -7.68249
head 11.4747 4.187 -2.42311
rclavicle 2.18663e-015 5.08889e-014
rhumerus -30.2077 -19.4618 -70.2682
rradius 19.1615
rwrist -4.37326
rhand -15.6674 -21.3965
rfingers 7.12502
rthumb 10.5211 -51.1132
lclavicle 2.18663e-015 5.08889e-014
lhumerus -35.6891 3.42726 83.8447
lradius 43.7561
lwrist 3.52279
lhand -18.1812 -6.34467
lfingers 7.12502
lthumb 8.09541 23.4803
rfemur -18.4883 2.72544 25.0574
rtibia 21.4674
rfoot 0.0363395 -4.29283
rtoes 18.2603
lfemur -8.83678 -8.39064 -9.71443
ltibia 57.8332
lfoot 11.2889 -8.70703
ltoes 5.30248
406
root 0.118599 17.9272 46.1424 -187.666 -221.06 168.504
lowerback 10.9446 1.26416 5.06266
upperback 4.24776 2.44765 5.0888
thorax -1.71143 1.27494 2.1472
lowerneck -10.6706 5.62156 5.11485
upperneck 28.0785 9.49353 -7.48112
head 11.5034 4.11984 -2.33597
rclavicle -5.58585e-014 6.36111e-015
rhumerus -29.4016 -20.1745 -70.174
rradius 18.798
rwrist -4.07339
rhand -16.4425 -20.8464
rfingers 7.12502
rthumb 9.77323 -50.5997
lclavicle -5.58585e-014 6.36111e-015
lhumerus -34.9748 3.08709 83.7739
lradius 43.0045
lwrist 3.56637
lhand -17.7576 -6.27597
lfingers 7.12502
lthumb 8.50428 23.5328
rfemur -17.7547 2.59653 25.2193
rtibia 21.6018
rfoot -0.734911 -5.02755
rtoes 17.9859
lfemur -9.94909 -8.17791 -9.56626
ltibia 59.8321
lfoot 10.2003 -8.8628
ltoes 1.7228
407
root 0.165955 17.9464 46.2571 -187.889 -221.62 168.74
lowerback 11.461 1.38369 4.7335
upperback 4.111 2.62752 5.14739
thorax -2.15568 1.35549 2.35371
lowerneck -10.4775 5.52275 5.11863
upperneck 28.3111 9.41441 -7.52959
head 11.5509 4.08806 -2.37232
rclavicle 8.15017e-015 3.02153e-014
rhumerus -29.1434 -18.9096 -70.1522
rradius 18.5479
rwrist -5.72131
rhand -17.588 -20.3584
rfingers 7.12502
rthumb 8.66791 -50.1605
lclavicle 8.15017e-015 3.02153e-014
lhumerus -35.1902 2.92156 83.8743
lradius 42.3147
lwrist 3.83349
lhand -17.4249 -6.65299
lfingers 7.12502
lthumb 8.82529 23.1425
rfemur -16.8448 2.25862 25.1044
rtibia 21.4982
rfoot -0.759567 -5.12436
rtoes 15.1158
lfemur -10.825 -7.74592 -9.81343
ltibia 61.5883
lfoot 8.77763 -8.77864
ltoes 1.69249
